<svg width="32" height="32" viewBox="0 0 32 32" fill="none" xmlns="http://www.w3.org/2000/svg">
  <!-- Background circle -->
  <circle cx="16" cy="16" r="15" fill="#2563eb" stroke="#1d4ed8" stroke-width="2"/>
  
  <!-- Python snake (simplified) -->
  <path d="M8 12c0-2 2-3 4-3s4 1 4 3v2c0 2-2 3-4 3s-4-1-4-3v-2z" fill="#3776ab"/>
  <path d="M20 20c0-2 2-3 4-3s4 1 4 3v2c0 2-2 3-4 3s-4-1-4-3v-2z" fill="#3776ab"/>
  
  <!-- Container/box outline -->
  <rect x="6" y="8" width="20" height="16" rx="2" fill="none" stroke="#ffffff" stroke-width="1.5" opacity="0.8"/>
  
  <!-- Kubernetes-style hexagon -->
  <path d="M16 6l4.5 2.6v5.2L16 19.4l-4.5-5.6V8.6L16 6z" fill="#ffffff" opacity="0.9"/>
  
  <!-- Docker whale tail (simplified) -->
  <path d="M24 22c2 0 3-1 3-2s-1-2-3-2c-1 0-2 0-2 1v2c0 1 1 1 2 1z" fill="#ffffff" opacity="0.7"/>
  
  <!-- Code brackets -->
  <path d="M10 10h2v2h-2v-2zM10 14h2v2h-2v-2zM20 10h2v2h-2v-2zM20 14h2v2h-2v-2z" fill="#ffffff" opacity="0.6"/>
</svg>
